<svg width="24" height="24" viewBox="0 0 24 24" fill="none" xmlns="http://www.w3.org/2000/svg">
<path d="M7.5 15.5H7.75C7.94891 15.5 8.13968 15.421 8.28033 15.2803C8.42098 15.1397 8.5 14.9489 8.5 14.75V8.25C8.5 8.05109 8.42098 7.86032 8.28033 7.71967C8.13968 7.57902 7.94891 7.5 7.75 7.5H7.5M15.5 15.5H15.25C15.0511 15.5 14.8603 15.421 14.7197 15.2803C14.579 15.1397 14.5 14.9489 14.5 14.75V8.25C14.5 8.05109 14.579 7.86032 14.7197 7.71967C14.8603 7.57902 15.0511 7.5 15.25 7.5H15.5M11.5 13.5V9.5" stroke="#1B1F24" stroke-linecap="round" stroke-linejoin="round"/>
</svg>
