<svg width="24" height="24" viewBox="0 0 24 24" fill="none" xmlns="http://www.w3.org/2000/svg">
<path fill-rule="evenodd" clip-rule="evenodd" d="M8.89996 6H8.87996C8.47696 6 8.14496 6 7.87396 6.022C7.59396 6.045 7.33396 6.094 7.09196 6.218C6.71566 6.40974 6.40971 6.71569 6.21796 7.092C6.09396 7.335 6.04496 7.593 6.02196 7.874C5.99996 8.144 5.99996 8.477 5.99996 8.88V9.5C5.99996 9.63261 6.05264 9.75979 6.14641 9.85355C6.24018 9.94732 6.36736 10 6.49996 10C6.63257 10 6.75975 9.94732 6.85352 9.85355C6.94729 9.75979 6.99996 9.63261 6.99996 9.5V8.9C6.99996 8.472 6.99996 8.18 7.01896 7.956C7.03696 7.736 7.06896 7.624 7.10896 7.546C7.20484 7.35785 7.35781 7.20487 7.54596 7.109C7.62396 7.069 7.73596 7.037 7.95596 7.019C8.17996 7 8.47196 7 8.89996 7H9.49996C9.63257 7 9.75975 6.94732 9.85352 6.85355C9.94729 6.75979 9.99996 6.63261 9.99996 6.5C9.99996 6.36739 9.94729 6.24021 9.85352 6.14645C9.75975 6.05268 9.63257 6 9.49996 6H8.89996ZM15.1 6H15.12C15.523 6 15.855 6 16.126 6.022C16.407 6.045 16.666 6.094 16.908 6.218C17.2843 6.40974 17.5902 6.71569 17.782 7.092C17.906 7.335 17.955 7.593 17.978 7.874C18 8.144 18 8.477 18 8.879V9.5C18 9.63261 17.9473 9.75979 17.8535 9.85355C17.7597 9.94732 17.6326 10 17.5 10C17.3674 10 17.2402 9.94732 17.1464 9.85355C17.0526 9.75979 17 9.63261 17 9.5V8.9C17 8.472 17 8.18 16.981 7.956C16.963 7.736 16.931 7.624 16.891 7.546C16.7951 7.35785 16.6421 7.20487 16.454 7.109C16.376 7.069 16.264 7.037 16.044 7.019C15.7296 7.00117 15.4148 6.99483 15.1 7H14.5C14.3674 7 14.2402 6.94732 14.1464 6.85355C14.0526 6.75979 14 6.63261 14 6.5C14 6.36739 14.0526 6.24021 14.1464 6.14645C14.2402 6.05268 14.3674 6 14.5 6H15.1ZM15.12 18H14.5C14.3674 18 14.2402 17.9473 14.1464 17.8536C14.0526 17.7598 14 17.6326 14 17.5C14 17.3674 14.0526 17.2402 14.1464 17.1464C14.2402 17.0527 14.3674 17 14.5 17H15.1C15.528 17 15.82 17 16.044 16.981C16.264 16.963 16.376 16.931 16.454 16.891C16.6421 16.7951 16.7951 16.6422 16.891 16.454C16.931 16.376 16.963 16.264 16.981 16.044C17 15.819 17 15.528 17 15.1V14.5C17 14.3674 17.0526 14.2402 17.1464 14.1464C17.2402 14.0527 17.3674 14 17.5 14C17.6326 14 17.7597 14.0527 17.8535 14.1464C17.9473 14.2402 18 14.3674 18 14.5V15.12C18 15.523 18 15.855 17.978 16.126C17.955 16.407 17.906 16.666 17.782 16.908C17.5902 17.2843 17.2843 17.5903 16.908 17.782C16.665 17.906 16.407 17.955 16.126 17.978C15.856 18 15.523 18 15.121 18H15.12ZM8.89996 18H8.87996C8.47696 18 8.14496 18 7.87396 17.978C7.59296 17.955 7.33396 17.906 7.09196 17.782C6.71566 17.5903 6.40971 17.2843 6.21796 16.908C6.09396 16.665 6.04496 16.407 6.02196 16.126C6.00199 15.7911 5.99465 15.4555 5.99996 15.12V14.5C5.99996 14.3674 6.05264 14.2402 6.14641 14.1464C6.24018 14.0527 6.36736 14 6.49996 14C6.63257 14 6.75975 14.0527 6.85352 14.1464C6.94729 14.2402 6.99996 14.3674 6.99996 14.5V15.1C6.99996 15.528 6.99996 15.82 7.01896 16.044C7.03696 16.264 7.06896 16.376 7.10896 16.454C7.20484 16.6422 7.35781 16.7951 7.54596 16.891C7.62396 16.931 7.73596 16.963 7.95596 16.981C8.18096 17 8.47196 17 8.89996 17H9.49996C9.63257 17 9.75975 17.0527 9.85352 17.1464C9.94729 17.2402 9.99996 17.3674 9.99996 17.5C9.99996 17.6326 9.94729 17.7598 9.85352 17.8536C9.75975 17.9473 9.63257 18 9.49996 18H8.89996Z" fill="white"/>
</svg>
