<svg width="220" height="24" viewBox="0 0 220 24" fill="none" xmlns="http://www.w3.org/2000/svg">
<g clip-path="url(#clip0_20_206)">
<path d="M1.00611 16.9318C1.00611 20.7429 3.89167 23.8308 7.4572 23.8308L11.3656 23.8308L11.3656 20.2722L8.20002 20.2722C6.06299 20.2722 4.70877 18.4183 4.70877 16.134L4.70877 13.7808L2.79459 11.9154L4.70877 10.05L4.70877 7.69681C4.70877 5.41245 6.06299 3.55857 8.20002 3.55857L11.3656 3.55857L11.3656 2.86102e-05L7.4572 2.82685e-05C3.89739 2.79573e-05 1.00611 3.08792 1.00611 6.899L1.00611 8.49461L0.0175918 9.52773L0.0175914 14.3145L1.00611 15.3477L1.00611 16.9433L1.00611 16.9318Z" fill="#96D700"/>
</g>
<path d="M15.3381 18.2184C14.2218 18.2184 13.3239 17.7998 12.6444 16.9626C11.9771 16.1132 11.6434 14.9545 11.6434 13.4863C11.6434 12.5035 11.8193 11.6602 12.1712 10.9564C12.5352 10.2527 13.0024 9.71275 13.5727 9.33661C14.1551 8.94834 14.7617 8.7542 15.3927 8.7542C15.8902 8.7542 16.3088 8.83913 16.6485 9.009C16.9883 9.17887 17.3098 9.40941 17.6131 9.70062L17.5039 8.31739V5.24152L20.1794 5.24152L20.1794 18H17.9953L17.8133 17.1082H17.7405C17.4251 17.4237 17.055 17.6906 16.6303 17.909C16.2056 18.1153 15.7749 18.2184 15.3381 18.2184ZM16.0297 16.0344C16.3209 16.0344 16.5879 15.9737 16.8305 15.8524C17.0732 15.731 17.2977 15.5187 17.5039 15.2153L17.5039 11.5207C17.2734 11.3023 17.0307 11.1506 16.7759 11.0656C16.5211 10.9807 16.2663 10.9382 16.0115 10.9382C15.7203 10.9382 15.4534 11.0292 15.2107 11.2113C14.968 11.3933 14.7678 11.6723 14.6101 12.0485C14.4645 12.4125 14.3917 12.8796 14.3917 13.4499C14.3917 14.3357 14.5373 14.9909 14.8285 15.4155C15.1197 15.8281 15.5201 16.0344 16.0297 16.0344ZM26.5903 18.2184C25.7289 18.2184 24.9523 18.0303 24.2607 17.6542C23.5691 17.2781 23.0231 16.7381 22.6227 16.0344C22.2222 15.3306 22.022 14.4813 22.022 13.4863C22.022 12.5035 22.2222 11.6602 22.6227 10.9564C23.0352 10.2527 23.5691 9.71275 24.2243 9.33661C24.8795 8.94834 25.5651 8.7542 26.2809 8.7542C27.1424 8.7542 27.8583 8.94834 28.4286 9.33661C28.9989 9.71275 29.4235 10.2284 29.7026 10.8836C29.9817 11.5389 30.1212 12.2729 30.1212 13.0859C30.1212 13.3164 30.1091 13.547 30.0848 13.7775C30.0606 13.9959 30.0363 14.1718 30.012 14.3053L24.0969 14.3053L24.0605 12.4489H27.828C27.828 11.9757 27.7127 11.5874 27.4822 11.2841C27.2516 10.9686 26.8694 10.8108 26.3355 10.8108C26.0443 10.8108 25.7592 10.8897 25.4801 11.0474C25.201 11.2052 24.9705 11.4782 24.7885 11.8665C24.6065 12.2547 24.5216 12.7947 24.5337 13.4863C24.5458 14.1658 24.6672 14.6997 24.8977 15.0879C25.1404 15.4762 25.4437 15.7553 25.8077 15.9252C26.1717 16.0829 26.5539 16.1618 26.9543 16.1618C27.3062 16.1618 27.6399 16.1132 27.9554 16.0162C28.283 15.907 28.6045 15.7614 28.92 15.5793L29.7936 17.2174C29.3447 17.5329 28.8351 17.7816 28.2648 17.9636C27.6945 18.1335 27.1364 18.2184 26.5903 18.2184ZM34.6272 18.2184C34.0327 18.2184 33.4199 18.1031 32.789 17.8726C32.1581 17.6421 31.6181 17.3084 31.1692 16.8716L32.2976 15.3609C32.7101 15.6885 33.1166 15.9191 33.517 16.0526C33.9296 16.1739 34.3239 16.2346 34.7 16.2346C35.1004 16.2346 35.3917 16.1678 35.5737 16.0344C35.7557 15.8888 35.8467 15.7007 35.8467 15.4701C35.8467 15.2639 35.7617 15.094 35.5919 14.9605C35.4341 14.8271 35.2218 14.7118 34.9548 14.6147C34.7 14.5055 34.4088 14.3903 34.0812 14.2689C33.6444 14.1112 33.244 13.911 32.88 13.6683C32.516 13.4256 32.2187 13.1344 31.9882 12.7947C31.7698 12.4549 31.6606 12.0485 31.6606 11.5753C31.6606 10.7259 31.976 10.0464 32.607 9.53682C33.2501 9.01507 34.0873 8.7542 35.1186 8.7542C35.7739 8.7542 36.3684 8.8634 36.9023 9.08181C37.4483 9.28808 37.9154 9.56108 38.3037 9.90082L37.1571 11.3933C36.8295 11.1627 36.5019 10.9989 36.1743 10.9018C35.8467 10.7926 35.5251 10.738 35.2097 10.738C34.8578 10.738 34.5969 10.8048 34.427 10.9382C34.2572 11.0717 34.1722 11.2416 34.1722 11.4479C34.1722 11.6177 34.2329 11.7633 34.3542 11.8847C34.4756 12.006 34.6576 12.1213 34.9002 12.2305C35.155 12.3275 35.4705 12.4367 35.8467 12.5581C36.3077 12.7158 36.7264 12.916 37.1025 13.1587C37.4908 13.3892 37.7941 13.6804 38.0125 14.0323C38.2309 14.3842 38.3401 14.8089 38.3401 15.3063C38.3401 15.8524 38.1945 16.3438 37.9033 16.7806C37.6242 17.2174 37.2117 17.5693 36.6657 17.8362C36.1197 18.091 35.4402 18.2184 34.6272 18.2184ZM40.0393 18V8.9726H42.7148V18H40.0393ZM41.3679 7.64397C40.919 7.64397 40.555 7.51657 40.2759 7.26177C39.9968 7.00696 39.8573 6.66722 39.8573 6.24254C39.8573 5.81787 39.9968 5.47813 40.2759 5.22332C40.555 4.96852 40.919 4.84111 41.3679 4.84111C41.8169 4.84111 42.1809 4.96852 42.4599 5.22332C42.739 5.47813 42.8786 5.81787 42.8786 6.24254C42.8786 6.66722 42.739 7.00696 42.4599 7.26177C42.1809 7.51657 41.8169 7.64397 41.3679 7.64397ZM48.2908 21.8403C47.587 21.8403 46.9439 21.7553 46.3615 21.5855C45.7912 21.4277 45.3362 21.179 44.9965 20.8393C44.6689 20.5117 44.5051 20.0809 44.5051 19.547C44.5051 19.1709 44.6143 18.8312 44.8327 18.5278C45.0632 18.2245 45.3848 17.9575 45.7973 17.727V17.6542C45.5668 17.4965 45.3666 17.2963 45.1967 17.0536C45.039 16.7988 44.9601 16.4894 44.9601 16.1254C44.9601 15.7978 45.0572 15.4883 45.2513 15.1971C45.4454 14.8938 45.6881 14.639 45.9793 14.4327V14.3599C45.6517 14.1415 45.3666 13.826 45.1239 13.4135C44.8812 13.001 44.7599 12.5338 44.7599 12.0121C44.7599 11.2962 44.9358 10.6956 45.2877 10.2102C45.6396 9.72489 46.1006 9.36088 46.6709 9.11821C47.2412 8.87553 47.8479 8.7542 48.491 8.7542C48.7458 8.7542 48.9884 8.7724 49.219 8.8088C49.4616 8.8452 49.6861 8.8998 49.8924 8.9726L53.1867 8.9726V10.92H51.676V10.9928C51.7974 11.1506 51.8884 11.3265 51.949 11.5207C52.0097 11.7027 52.04 11.9089 52.04 12.1395C52.04 12.819 51.8823 13.3832 51.5668 13.8321C51.2514 14.2689 50.8206 14.5965 50.2746 14.8149C49.7407 15.0333 49.1462 15.1425 48.491 15.1425C48.3332 15.1425 48.1634 15.1304 47.9814 15.1061C47.7993 15.0697 47.6052 15.0212 47.3989 14.9605C47.2897 15.0576 47.2048 15.1547 47.1441 15.2517C47.0956 15.3488 47.0713 15.4762 47.0713 15.6339C47.0713 15.8524 47.1745 16.0222 47.3807 16.1436C47.587 16.2528 47.9389 16.3074 48.4364 16.3074H49.8924C51.0087 16.3074 51.858 16.4894 52.4404 16.8534C53.035 17.2052 53.3323 17.7877 53.3323 18.6006C53.3323 19.2194 53.126 19.7715 52.7135 20.2568C52.3009 20.7543 51.7185 21.1426 50.9662 21.4217C50.2139 21.7007 49.3221 21.8403 48.2908 21.8403ZM48.491 13.5227C48.7336 13.5227 48.946 13.4681 49.128 13.3589C49.31 13.2376 49.4556 13.0677 49.5648 12.8493C49.674 12.6309 49.7286 12.3518 49.7286 12.0121C49.7286 11.5267 49.6073 11.1627 49.3646 10.92C49.134 10.6774 48.8428 10.556 48.491 10.556C48.1391 10.556 47.8418 10.6774 47.5991 10.92C47.3686 11.1627 47.2533 11.5267 47.2533 12.0121C47.2533 12.3518 47.3079 12.6309 47.4171 12.8493C47.5385 13.0677 47.6901 13.2376 47.8721 13.3589C48.0542 13.4681 48.2604 13.5227 48.491 13.5227ZM48.7094 20.1658C49.1098 20.1658 49.4616 20.1173 49.765 20.0202C50.0805 19.9232 50.3292 19.7897 50.5112 19.6198C50.6932 19.45 50.7842 19.2619 50.7842 19.0556C50.7842 18.7644 50.6629 18.5703 50.4202 18.4732C50.1775 18.3883 49.8378 18.3458 49.401 18.3458H48.4728C48.1573 18.3458 47.9025 18.3337 47.7083 18.3094C47.5263 18.2973 47.3565 18.273 47.1987 18.2366C47.0289 18.3822 46.9015 18.5217 46.8165 18.6552C46.7437 18.8008 46.7073 18.9586 46.7073 19.1284C46.7073 19.4682 46.8893 19.723 47.2533 19.8928C47.6295 20.0748 48.1148 20.1658 48.7094 20.1658ZM54.7916 18V8.9726H56.9756L57.1576 10.1192H57.2304C57.6066 9.74309 58.0312 9.42155 58.5045 9.15461C58.9777 8.88767 59.5176 8.7542 60.1243 8.7542C61.1192 8.7542 61.8351 9.08181 62.2719 9.73702C62.7087 10.3801 62.9271 11.2659 62.9271 12.3943V18H60.2517V12.7401C60.2517 12.0849 60.1607 11.6359 59.9787 11.3933C59.8088 11.1506 59.5297 11.0292 59.1415 11.0292C58.8017 11.0292 58.5105 11.1081 58.2678 11.2659C58.0252 11.4115 57.7582 11.6238 57.467 11.9029V18H54.7916ZM71.4897 16.2892V12.9403H68.2865V11.0474H71.4897V7.69858H73.4554V11.0474L76.6586 11.0474V12.9403L73.4554 12.9403V16.2892H71.4897ZM85.3314 18.2184C84.2151 18.2184 83.3172 17.7998 82.6377 16.9626C81.9704 16.1132 81.6367 14.9545 81.6367 13.4863C81.6367 12.5035 81.8127 11.6602 82.1645 10.9564C82.5285 10.2527 82.9957 9.71275 83.566 9.33661C84.1484 8.94834 84.7551 8.7542 85.386 8.7542C85.8835 8.7542 86.3021 8.83913 86.6418 9.009C86.9816 9.17887 87.3031 9.40941 87.6065 9.70062L87.4973 8.31739V5.24152L90.1727 5.24152V18H87.9887L87.8067 17.1082H87.7339C87.4184 17.4237 87.0483 17.6906 86.6236 17.909C86.199 18.1153 85.7682 18.2184 85.3314 18.2184ZM86.023 16.0344C86.3142 16.0344 86.5812 15.9737 86.8238 15.8524C87.0665 15.731 87.291 15.5187 87.4973 15.2153V11.5207C87.2667 11.3023 87.024 11.1506 86.7692 11.0656C86.5144 10.9807 86.2596 10.9382 86.0048 10.9382C85.7136 10.9382 85.4467 11.0292 85.204 11.2113C84.9613 11.3933 84.7611 11.6723 84.6034 12.0485C84.4578 12.4125 84.385 12.8796 84.385 13.4499C84.385 14.3357 84.5306 14.9909 84.8218 15.4155C85.113 15.8281 85.5134 16.0344 86.023 16.0344ZM96.5837 18.2184C95.7222 18.2184 94.9456 18.0303 94.254 17.6542C93.5624 17.2781 93.0164 16.7381 92.616 16.0344C92.2156 15.3306 92.0154 14.4813 92.0154 13.4863C92.0154 12.5035 92.2156 11.6602 92.616 10.9564C93.0285 10.2527 93.5624 9.71275 94.2176 9.33661C94.8728 8.94834 95.5584 8.7542 96.2743 8.7542C97.1357 8.7542 97.8516 8.94834 98.4219 9.33661C98.9922 9.71275 99.4169 10.2284 99.6959 10.8836C99.975 11.5389 100.115 12.2729 100.115 13.0859C100.115 13.3164 100.102 13.547 100.078 13.7775C100.054 13.9959 100.03 14.1718 100.005 14.3053L94.0902 14.3053L94.0538 12.4489L97.8213 12.4489C97.8213 11.9757 97.706 11.5874 97.4755 11.2841C97.2449 10.9686 96.8627 10.8108 96.3289 10.8108C96.0376 10.8108 95.7525 10.8897 95.4734 11.0474C95.1944 11.2052 94.9638 11.4782 94.7818 11.8665C94.5998 12.2547 94.5149 12.7947 94.527 13.4863C94.5391 14.1658 94.6605 14.6997 94.891 15.0879C95.1337 15.4762 95.437 15.7553 95.801 15.9252C96.1651 16.0829 96.5473 16.1618 96.9477 16.1618C97.2995 16.1618 97.6332 16.1132 97.9487 16.0162C98.2763 15.907 98.5978 15.7614 98.9133 15.5793L99.7869 17.2174C99.338 17.5329 98.8284 17.7816 98.2581 17.9636C97.6878 18.1335 97.1297 18.2184 96.5837 18.2184ZM103.932 18L100.892 8.9726H103.586L104.751 13.2315C104.872 13.6804 104.987 14.1354 105.096 14.5965C105.218 15.0576 105.339 15.5308 105.46 16.0162H105.533C105.642 15.5308 105.758 15.0576 105.879 14.5965C106 14.1354 106.116 13.6804 106.225 13.2315L107.408 8.9726L109.974 8.9726L107.026 18H103.932ZM114.463 10.829V8.9362L122.835 8.9362V10.829L114.463 10.829ZM114.463 15.0515V13.1587L122.835 13.1587V15.0515H114.463ZM128.505 18V6.13334L132.582 6.13334C133.455 6.13334 134.244 6.25468 134.948 6.49735C135.664 6.72789 136.234 7.12223 136.659 7.68038C137.083 8.23852 137.296 8.99687 137.296 9.95542C137.296 10.8776 137.083 11.6359 136.659 12.2305C136.234 12.825 135.67 13.2679 134.966 13.5591C134.262 13.8382 133.492 13.9777 132.654 13.9777L131.18 13.9777V18H128.505ZM131.18 11.8483L132.491 11.8483C133.231 11.8483 133.777 11.6845 134.129 11.3569C134.493 11.0292 134.675 10.5621 134.675 9.95542C134.675 9.32448 134.481 8.88767 134.092 8.645C133.704 8.39019 133.146 8.26279 132.418 8.26279L131.18 8.26279V11.8483ZM142.614 18.2184C141.85 18.2184 141.134 18.0364 140.466 17.6724C139.799 17.2963 139.253 16.7563 138.828 16.0526C138.416 15.3367 138.21 14.4813 138.21 13.4863C138.21 12.4913 138.416 11.642 138.828 10.9382C139.253 10.2224 139.799 9.68242 140.466 9.31841C141.134 8.94227 141.85 8.7542 142.614 8.7542C143.366 8.7542 144.076 8.94227 144.743 9.31841C145.411 9.68242 145.951 10.2224 146.363 10.9382C146.788 11.642 147 12.4913 147 13.4863C147 14.4813 146.788 15.3367 146.363 16.0526C145.951 16.7563 145.411 17.2963 144.743 17.6724C144.076 18.0364 143.366 18.2184 142.614 18.2184ZM142.614 16.0526C142.978 16.0526 143.281 15.9494 143.524 15.7432C143.779 15.5369 143.967 15.2396 144.088 14.8513C144.21 14.4631 144.27 14.008 144.27 13.4863C144.27 12.9646 144.21 12.5095 144.088 12.1213C143.967 11.733 143.779 11.4357 143.524 11.2295C143.281 11.0232 142.978 10.92 142.614 10.92C142.238 10.92 141.928 11.0232 141.686 11.2295C141.443 11.4357 141.261 11.733 141.14 12.1213C141.018 12.5095 140.958 12.9646 140.958 13.4863C140.958 14.008 141.018 14.4631 141.14 14.8513C141.261 15.2396 141.443 15.5369 141.686 15.7432C141.928 15.9494 142.238 16.0526 142.614 16.0526ZM151.29 18.2002C150.683 18.2002 150.198 18.0789 149.834 17.8362C149.482 17.5814 149.227 17.2295 149.069 16.7806C148.912 16.3195 148.833 15.7856 148.833 15.1789V5.25972H151.508V15.2881C151.508 15.5793 151.557 15.7796 151.654 15.8888C151.763 15.9858 151.878 16.0344 152 16.0344C152.048 16.0344 152.091 16.0344 152.127 16.0344C152.176 16.0222 152.236 16.0101 152.309 15.998L152.637 17.9818C152.491 18.0425 152.303 18.091 152.073 18.1274C151.854 18.1759 151.593 18.2002 151.29 18.2002ZM155.042 21.5309C154.775 21.5309 154.538 21.5127 154.332 21.4763C154.138 21.4399 153.95 21.3853 153.768 21.3125L154.241 19.3468C154.374 19.3832 154.483 19.4014 154.568 19.4014C154.665 19.4136 154.756 19.4196 154.841 19.4196C155.29 19.4196 155.636 19.3044 155.879 19.0738C156.134 18.8554 156.316 18.5763 156.425 18.2366L156.552 17.7634L153.076 8.9726L155.77 8.9726L157.062 12.8493C157.195 13.2618 157.317 13.6804 157.426 14.1051C157.535 14.5298 157.65 14.9666 157.772 15.4155H157.844C157.942 14.9909 158.039 14.5662 158.136 14.1415C158.245 13.7047 158.354 13.274 158.463 12.8493L159.555 8.9726H162.122L158.991 18.091C158.7 18.8433 158.384 19.4742 158.045 19.9838C157.717 20.4935 157.311 20.8757 156.825 21.1305C156.352 21.3974 155.758 21.5309 155.042 21.5309ZM167.008 18.2002C165.892 18.2002 165.091 17.8787 164.606 17.2356C164.12 16.5804 163.878 15.7371 163.878 14.7057V11.0656H162.658V9.08181L164.041 8.9726L164.351 6.20614H166.571V8.9726H168.737V11.0656H166.571V14.6693C166.571 15.1789 166.674 15.549 166.881 15.7796C167.099 15.998 167.384 16.1072 167.736 16.1072C167.882 16.1072 168.027 16.095 168.173 16.0708C168.319 16.0465 168.458 16.0101 168.592 15.9616L169.028 17.8362C168.798 17.9333 168.507 18.0182 168.155 18.091C167.815 18.1638 167.433 18.2002 167.008 18.2002ZM174.121 18.2184C172.883 18.2184 171.882 17.7027 171.118 16.6714C170.366 15.64 169.99 14.1415 169.99 12.1759C169.99 10.1981 170.366 8.71173 171.118 7.71678C171.882 6.72182 172.883 6.22434 174.121 6.22434C175.359 6.22434 176.354 6.72789 177.106 7.73498C177.87 8.72993 178.253 10.2102 178.253 12.1759C178.253 14.1415 177.87 15.64 177.106 16.6714C176.354 17.7027 175.359 18.2184 174.121 18.2184ZM174.121 16.1436C174.424 16.1436 174.697 16.0344 174.94 15.816C175.183 15.5854 175.371 15.185 175.504 14.6147C175.65 14.0323 175.723 13.2194 175.723 12.1759C175.723 11.1203 175.65 10.3134 175.504 9.75522C175.371 9.19708 175.183 8.81487 174.94 8.6086C174.697 8.40232 174.424 8.29919 174.121 8.29919C173.818 8.29919 173.545 8.40232 173.302 8.6086C173.059 8.81487 172.865 9.19708 172.72 9.75522C172.586 10.3134 172.519 11.1203 172.519 12.1759C172.519 13.2194 172.586 14.0323 172.72 14.6147C172.865 15.185 173.059 15.5854 173.302 15.816C173.545 16.0344 173.818 16.1436 174.121 16.1436ZM180.115 18V5.24152L182.754 5.24152V12.5217H182.827L185.63 8.9726H188.56L185.429 12.7219L188.796 18H185.903L183.864 14.4873L182.754 15.7432V18H180.115ZM193.611 18.2184C192.749 18.2184 191.973 18.0303 191.281 17.6542C190.59 17.2781 190.044 16.7381 189.643 16.0344C189.243 15.3306 189.043 14.4813 189.043 13.4863C189.043 12.5035 189.243 11.6602 189.643 10.9564C190.056 10.2527 190.59 9.71275 191.245 9.33661C191.9 8.94834 192.586 8.7542 193.302 8.7542C194.163 8.7542 194.879 8.94834 195.449 9.33661C196.019 9.71275 196.444 10.2284 196.723 10.8836C197.002 11.5389 197.142 12.2729 197.142 13.0859C197.142 13.3164 197.13 13.547 197.105 13.7775C197.081 13.9959 197.057 14.1718 197.033 14.3053H191.118L191.081 12.4489H194.849C194.849 11.9757 194.733 11.5874 194.503 11.2841C194.272 10.9686 193.89 10.8108 193.356 10.8108C193.065 10.8108 192.78 10.8897 192.501 11.0474C192.222 11.2052 191.991 11.4782 191.809 11.8665C191.627 12.2547 191.542 12.7947 191.554 13.4863C191.566 14.1658 191.688 14.6997 191.918 15.0879C192.161 15.4762 192.464 15.7553 192.828 15.9252C193.192 16.0829 193.575 16.1618 193.975 16.1618C194.327 16.1618 194.661 16.1132 194.976 16.0162C195.304 15.907 195.625 15.7614 195.941 15.5793L196.814 17.2174C196.365 17.5329 195.856 17.7816 195.285 17.9636C194.715 18.1335 194.157 18.2184 193.611 18.2184ZM198.991 18V8.9726L201.175 8.9726L201.357 10.1192H201.429C201.806 9.74309 202.23 9.42155 202.703 9.15461C203.177 8.88767 203.717 8.7542 204.323 8.7542C205.318 8.7542 206.034 9.08181 206.471 9.73702C206.908 10.3801 207.126 11.2659 207.126 12.3943V18L204.451 18V12.7401C204.451 12.0849 204.36 11.6359 204.178 11.3933C204.008 11.1506 203.729 11.0292 203.34 11.0292C203.001 11.0292 202.71 11.1081 202.467 11.2659C202.224 11.4115 201.957 11.6238 201.666 11.9029V18H198.991Z" fill="white"/>
<g clip-path="url(#clip1_20_206)">
<path d="M218.276 7.00342C218.276 3.19234 215.39 0.104442 211.825 0.104442L207.917 0.104442V3.66298L211.082 3.66298C213.219 3.66298 214.573 5.51687 214.573 7.80122V10.1544L216.488 12.0198L214.573 13.8852V16.2384C214.573 18.5228 213.219 20.3766 211.082 20.3766H207.917V23.9352H211.825C215.385 23.9352 218.276 20.8473 218.276 17.0362V15.4406L219.265 14.4075V9.62067L218.276 8.58754V6.99194V7.00342Z" fill="#96D700"/>
</g>
<defs>
<clipPath id="clip0_20_206">
<rect width="11.348" height="23.8307" fill="white" transform="translate(11.3485 23.8308) rotate(-180)"/>
</clipPath>
<clipPath id="clip1_20_206">
<rect width="11.348" height="23.8307" fill="white" transform="translate(207.934 0.104442)"/>
</clipPath>
</defs>
</svg>
